<svg xmlns="http://www.w3.org/2000/svg" viewBox="0 0 2115.586123 298.435684" fill="currentColor" role="img" aria-label="Lightmile">
<g transform="translate(-0.348210,298.575211) scale(0.100000,-0.100000)" stroke="none">
<path d="M4860 2983 c-627 -81 -1121 -505 -1329 -1140 -79 -241 -114 -530 -93
-768 41 -452 244 -769 606 -946 371 -181 935 -168 1349 30 358 172 621 489
731 881 27 98 117 609 109 623 -4 6 -1302 11 -1304 5 -15 -77 -93 -570 -90
-573 2 -3 120 -5 262 -5 l258 0 -16 -46 c-37 -109 -182 -246 -311 -294 -83
-32 -191 -50 -292 -50 -162 0 -270 34 -355 111 -107 99 -151 245 -141 469 17
379 165 708 395 878 117 88 213 123 366 136 247 22 412 -85 432 -280 l6 -54
407 0 408 0 6 43 c8 53 -9 211 -31 287 -37 130 -125 270 -234 376 -154 148
-339 241 -591 295 -72 16 -139 21 -303 24 -115 2 -226 1 -245 -2z"/>
<path d="M391 2383 c-52 -313 -160 -965 -241 -1451 l-147 -882 1021 0 1021 0
53 318 c29 174 52 325 52 335 0 16 -36 17 -615 17 l-615 0 5 23 c6 23 365
2191 365 2201 0 3 -181 6 -403 6 l-403 0 -93 -567z"/>
<path d="M2700 2945 c0 -2 -81 -494 -180 -1092 -99 -599 -205 -1239 -235
-1423 -31 -184 -58 -345 -60 -357 l-5 -23 405 0 c223 0 405 2 405 5 0 2 77
467 170 1032 94 565 200 1206 235 1423 36 217 68 405 70 418 l5 22 -405 0
c-223 0 -405 -2 -405 -5z"/>
<path d="M6656 2923 c-6 -28 -476 -2862 -476 -2869 0 -2 181 -4 403 -4 l403 0
12 73 c7 39 48 292 92 561 44 269 83 493 86 497 5 9 967 13 976 4 2 -3 -37
-256 -88 -563 -52 -306 -94 -560 -94 -564 0 -5 181 -8 403 -8 l403 0 148 893
c81 490 189 1142 240 1447 l91 555 -399 3 c-219 1 -401 0 -403 -2 -4 -3 -182
-1059 -183 -1078 0 -5 -220 -8 -490 -8 l-490 0 0 23 c0 12 40 257 89 545 l88
522 -403 0 -402 0 -6 -27z"/>
<path d="M9430 2944 c0 -7 -99 -603 -106 -636 l-6 -28 416 0 c401 0 416 -1
416 -19 0 -17 -75 -473 -285 -1741 -41 -250 -75 -458 -75 -463 0 -4 181 -6
402 -5 l402 3 34 205 c163 999 331 2001 337 2009 4 8 138 11 421 11 228 0 414
3 414 6 0 7 99 603 106 637 l6 27 -1241 0 c-683 0 -1241 -3 -1241 -6z"/>
<path d="M11856 1518 c-130 -788 -239 -1441 -242 -1450 -5 -17 18 -18 395 -18
221 0 401 4 401 8 0 7 127 782 185 1127 9 50 40 272 70 494 30 222 56 405 59
408 4 5 5 3 46 -422 31 -309 47 -431 156 -1208 l57 -407 330 2 331 3 281 605
c296 636 389 844 551 1232 54 130 100 236 101 234 2 -1 -35 -200 -82 -442 -48
-241 -128 -695 -180 -1009 -52 -313 -97 -582 -99 -597 l-5 -28 398 0 398 0 87
528 c93 560 383 2312 389 2350 l4 22 -611 0 -611 0 -234 -521 c-199 -444 -384
-879 -496 -1166 -15 -40 -31 -70 -35 -68 -4 2 -10 57 -14 122 -16 267 -50 615
-106 1078 -33 270 -62 505 -65 523 l-6 32 -608 0 -608 0 -237 -1432z"/>
<path d="M15715 2928 c-3 -13 -38 -228 -80 -478 -41 -250 -146 -890 -235
-1423 -88 -532 -160 -970 -160 -972 0 -3 181 -5 403 -5 l402 0 238 1438 c131
790 238 1443 237 1450 0 9 -87 12 -400 12 l-400 0 -5 -22z"/>
<path d="M16755 2938 c-2 -7 -18 -98 -35 -203 -17 -104 -123 -745 -236 -1423
-112 -678 -204 -1239 -204 -1247 0 -13 127 -15 1018 -15 l1019 0 52 318 c28
174 51 325 51 335 0 16 -36 17 -615 17 l-615 0 5 23 c7 30 365 2185 365 2197
0 16 -799 13 -805 -2z"/>
<path d="M18945 2928 c-3 -13 -52 -311 -110 -663 -58 -352 -164 -992 -235
-1423 -72 -430 -130 -784 -130 -787 0 -3 498 -4 1107 -3 l1107 3 53 320 c29
176 53 326 53 333 0 9 -147 12 -700 12 -634 0 -700 1 -700 16 0 15 54 348 66
406 l6 28 649 0 c357 0 649 3 649 8 0 4 24 150 54 324 29 175 50 320 48 323
-3 3 -295 5 -649 5 l-645 0 6 28 c3 15 19 112 36 217 17 104 34 193 38 197 4
4 323 9 707 10 l700 3 52 315 c28 173 52 323 52 333 1 16 -58 17 -1104 17
l-1105 0 -5 -22z"/>
</g>
</svg>
